<?xml version="1.0" standalone="no"?>
<!DOCTYPE svg PUBLIC "-//W3C//DTD SVG 20010904//EN"
 "http://www.w3.org/TR/2001/REC-SVG-20010904/DTD/svg10.dtd">
<svg version="1.0" xmlns="http://www.w3.org/2000/svg"
 width="700.000000pt" height="700.000000pt" viewBox="0 0 700.000000 700.000000"
 preserveAspectRatio="xMidYMid meet">
<metadata>
Created by potrace 1.14, written by Peter Selinger 2001-2017
</metadata>
<g transform="translate(0.000000,700.000000) scale(0.100000,-0.100000)"
fill="#000000" stroke="none">
<path d="M0 5908 l0 -1093 1090 1090 c600 599 1090 1091 1090 1092 0 2 -490 3
-1090 3 l-1090 0 0 -1092z"/>
<path d="M3310 5239 c-453 -47 -792 -228 -992 -529 -110 -167 -156 -317 -165
-535 -6 -164 13 -278 67 -408 62 -149 183 -304 300 -384 165 -112 455 -220
805 -298 395 -89 426 -97 497 -133 100 -51 131 -92 136 -180 3 -58 0 -72 -20
-102 -59 -87 -146 -115 -363 -115 -175 0 -229 9 -334 57 -128 57 -220 153
-274 283 -21 52 -27 60 -48 57 -20 -2 -507 -88 -847 -150 l-93 -17 7 -30 c11
-54 74 -208 120 -295 152 -286 391 -491 697 -599 230 -81 397 -106 707 -105
284 0 446 21 650 86 390 124 685 381 800 696 49 134 63 236 57 407 -7 199 -41
321 -126 463 -91 154 -232 287 -381 362 -139 70 -417 151 -820 240 -323 71
-415 103 -463 159 -53 64 -58 152 -12 223 84 129 440 141 643 22 66 -39 143
-122 178 -193 16 -33 33 -60 38 -60 10 -1 848 250 855 256 2 1 -17 46 -42 98
-240 496 -692 740 -1356 734 -75 -1 -174 -6 -221 -10z"/>
</g>
</svg>
